<svg width="28" height="45" viewBox="0 0 28 45" fill="none" xmlns="http://www.w3.org/2000/svg">
<path d="M12.2734 24.6401L15.398 22.8361L26.6104 42.2565L23.4858 44.0605L12.2734 24.6401Z" fill="#9DA9C6"/>
<path d="M11.9404 23.856L15.5484 23.856V37.5662H11.9404V23.856Z" fill="black"/>
<path d="M15.5827 22.5483L15.5827 26.1562L1.87254 26.1562V22.5483L15.5827 22.5483Z" fill="#B6BED4"/>
<path d="M20.2045 8.70273L20.2045 12.3107L6.4943 12.3107V8.70273L20.2045 8.70273Z" fill="#B6BED4"/>
<path d="M11.9404 23.856L15.5484 23.856V44.0605H11.9404V23.856Z" fill="#CED4E3"/>
<path d="M0.39502 1.48685H4.00296V44.0605H0.39502V1.48685Z" fill="#E7E9F1"/>
<path d="M23.4858 1.48685H27.0938V44.0605H23.4858V1.48685Z" fill="#E7E9F1"/>
<path d="M0.394971 1.48684L4.00297 1.48685L15.5483 23.8561L12.3895 25.2396L0.394971 1.48684Z" fill="#CED4E3"/>
<path d="M27.0938 1.48686L23.4858 1.48684L12.117 23.8561L15.2758 25.2396L27.0938 1.48686Z" fill="#CED4E3"/>
</svg>
